<svg width="48" height="48" viewBox="0 0 48 48" fill="none" xmlns="http://www.w3.org/2000/svg">
<path d="M39.5625 21.1938H29.25V12.1938H25.875C26.9197 10.7991 27.481 9.10185 27.4738 7.35936C27.4738 4.76811 26.2477 2.33333 24.2738 1.00536L23.4365 0.441925L22.5992 1.00536C20.625 2.33352 19.3992 4.76821 19.3992 7.35936C19.3922 9.10188 19.9537 10.7991 20.9985 12.1937H17.25V21.1937H8.4375C6.99589 21.1953 5.61379 21.7687 4.59442 22.7881C3.57504 23.8075 3.00164 25.1896 3 26.6312V43.5C3.00089 44.2954 3.31725 45.0579 3.87967 45.6203C4.44208 46.1827 5.20462 46.4991 6 46.5H42C42.7954 46.4991 43.5579 46.1827 44.1203 45.6203C44.6827 45.0579 44.9991 44.2954 45 43.5V26.6313C44.9984 25.1897 44.425 23.8076 43.4056 22.7882C42.3862 21.7688 41.0041 21.1954 39.5625 21.1938ZM23.4365 4.26955C24.0918 5.08367 24.4738 6.18824 24.4738 7.35946C24.4738 8.53067 24.0918 9.63533 23.4365 10.4494C22.7812 9.63533 22.3992 8.53067 22.3992 7.35936C22.3992 6.18805 22.7812 5.08367 23.4365 4.26955ZM20.25 15.1938H26.25V21.1938H20.25V15.1938ZM6 26.6313C6.00074 25.985 6.25779 25.3655 6.71475 24.9085C7.17171 24.4516 7.79126 24.1945 8.4375 24.1938H39.5625C40.2087 24.1945 40.8283 24.4516 41.2853 24.9085C41.7422 25.3655 41.9993 25.985 42 26.6313V29.5916L39.975 30.4851C39.579 30.6594 39.151 30.7494 38.7183 30.7494C38.2856 30.7494 37.8577 30.6594 37.4617 30.4851L33.9375 28.9301L30.4125 30.4851C30.0164 30.6593 29.5885 30.7493 29.1558 30.7493C28.7231 30.7493 28.2951 30.6593 27.8991 30.4851L24.375 28.93L20.85 30.485C20.454 30.6593 20.026 30.7493 19.5933 30.7493C19.1606 30.7493 18.7326 30.6593 18.3366 30.485L14.8125 28.9301L11.2882 30.485C10.8921 30.6593 10.4641 30.7493 10.0314 30.7493C9.59874 30.7493 9.17076 30.6593 8.77472 30.485L6 29.261V26.6313ZM42 43.5H6V32.54L7.56356 33.2298C8.34125 33.572 9.18161 33.7487 10.0312 33.7487C10.8809 33.7487 11.7213 33.572 12.4989 33.2298L14.8125 32.209L17.1262 33.2298C17.9038 33.572 18.7442 33.7487 19.5938 33.7487C20.4434 33.7487 21.2838 33.572 22.0614 33.2298L24.375 32.209L26.6885 33.2298C27.4661 33.572 28.3064 33.7487 29.1561 33.7487C30.0057 33.7487 30.846 33.572 31.6237 33.2298L33.9375 32.209L36.2511 33.2299C37.0287 33.572 37.869 33.7487 38.7186 33.7487C39.5682 33.7487 40.4085 33.572 41.1862 33.2299L42.0011 32.8703L42.0019 43.5H42Z" fill="#FCC67C"/>
</svg>
