<svg width="48" height="48" viewBox="0 0 48 48" fill="none" xmlns="http://www.w3.org/2000/svg">
<path d="M46.5 46.5H45C38.8345 46.4997 32.8758 44.2769 28.2164 40.2392L26.6389 38.8719C25.7618 38.9572 24.8812 38.9999 24 39C18.0443 39 12.4327 37.0846 8.19863 33.6067C3.87891 30.0584 1.5 25.3148 1.5 20.25C1.5 15.1852 3.87891 10.4416 8.19863 6.89334C12.4327 3.41541 18.0443 1.5 24 1.5C29.9557 1.5 35.5673 3.41541 39.8014 6.89334C44.1211 10.4416 46.5 15.1852 46.5 20.25C46.4979 22.9423 45.8184 25.5909 44.524 27.9517C43.4005 30.0078 41.9043 31.8369 40.1117 33.3457C41.4513 36.7522 43.4761 39.8474 46.0606 42.4395L46.5 42.8787V46.5ZM27.6052 35.7396L30.1812 37.9721C33.7341 41.051 38.1577 42.947 42.8375 43.3965C40.2554 40.5103 38.2614 37.148 36.9671 33.4981L36.5551 32.3297L37.4184 31.6671C41.3403 28.6573 43.5 24.6027 43.5 20.25C43.5 11.5654 34.7523 4.5 24 4.5C13.2477 4.5 4.5 11.5654 4.5 20.25C4.5 28.9346 13.2477 36 24 36C24.984 35.9999 25.967 35.94 26.9437 35.8207L27.6052 35.7396Z" fill="white"/>
</svg>
