<svg width="57" height="57" viewBox="0 0 57 57" fill="none" xmlns="http://www.w3.org/2000/svg">
<path d="M49.3128 27.2921C50.248 28.5278 50.7656 30.0419 50.7656 31.6172C50.7656 34.1165 49.3685 36.4822 47.1196 37.8015C46.5407 38.141 45.8815 38.3198 45.2104 38.3191H31.8621L32.1961 45.1603C32.274 46.8135 31.6896 48.3832 30.554 49.58C29.9967 50.1699 29.3244 50.6392 28.5786 50.959C27.8327 51.2788 27.0293 51.4422 26.2178 51.4392C23.3232 51.4392 20.7627 49.4909 19.9945 46.7021L15.213 29.3906H8.01562C7.03037 29.3906 6.23438 28.5946 6.23438 27.6094V7.34767C6.23438 6.36242 7.03037 5.56642 8.01562 5.56642H41.4864C41.9985 5.56642 42.4995 5.66662 42.9615 5.86701C45.6111 6.99699 47.32 9.58537 47.32 12.4576C47.32 13.159 47.2198 13.8492 47.0194 14.5172C47.9546 15.7529 48.4723 17.267 48.4723 18.8423C48.4723 19.5437 48.3721 20.2339 48.1717 20.9019C49.1068 22.1376 49.6245 23.6517 49.6245 25.227C49.6134 25.9283 49.5132 26.6241 49.3128 27.2921ZM10.2422 9.57423V25.3828H14.751V9.57423H10.2422ZM45.6668 29.2236L44.4478 28.166L45.2215 26.7522C45.4764 26.2864 45.6086 25.7635 45.6056 25.2325C45.6056 24.3141 45.2048 23.4401 44.5146 22.839L43.2955 21.7814L44.0692 20.3675C44.3241 19.9017 44.4563 19.3788 44.4533 18.8479C44.4533 17.9294 44.0525 17.0555 43.3623 16.4543L42.1433 15.3967L42.917 13.9828C43.1719 13.5171 43.3041 12.9941 43.3011 12.4632C43.3011 11.2163 42.5663 10.0919 41.4308 9.5798H18.3135V25.5609L23.8521 45.6278C23.9949 46.1422 24.3014 46.5959 24.7253 46.9204C25.1492 47.2448 25.6673 47.4222 26.2011 47.4258C26.6241 47.4258 27.0416 47.3033 27.3756 47.0528C27.9267 46.6409 28.2217 46.0175 28.1883 45.3551L27.6539 34.3113H45.1547C46.1455 33.7046 46.7578 32.6804 46.7578 31.6172C46.7578 30.6987 46.357 29.8304 45.6668 29.2236Z" fill="#FCC67C"/>
</svg>
