<svg width="48" height="48" viewBox="0 0 48 48" fill="none" xmlns="http://www.w3.org/2000/svg">
<path d="M15.94 32L10 38C9.34 38.6 8.46 39 7.5 39C6.57174 39 5.6815 38.6313 5.02513 37.9749C4.36875 37.3185 4 36.4283 4 35.5V35L6 20.24C6.20162 17.9913 7.23669 15.8991 8.90192 14.3745C10.5672 12.8499 12.7422 12.003 15 12H33C37.72 12 41.58 15.62 42 20.24L44 35V35.5C44 36.4283 43.6312 37.3185 42.9749 37.9749C42.3185 38.6313 41.4283 39 40.5 39C39.54 39 38.66 38.6 38 38L32.06 32H15.94ZM14 16V20H10V22H14V26H16V22H20V20H16V16H14ZM33 16C32.6022 16 32.2206 16.158 31.9393 16.4393C31.658 16.7206 31.5 17.1022 31.5 17.5C31.5 17.8978 31.658 18.2794 31.9393 18.5607C32.2206 18.842 32.6022 19 33 19C33.3978 19 33.7794 18.842 34.0607 18.5607C34.342 18.2794 34.5 17.8978 34.5 17.5C34.5 17.1022 34.342 16.7206 34.0607 16.4393C33.7794 16.158 33.3978 16 33 16ZM29.5 19.5C29.1022 19.5 28.7206 19.658 28.4393 19.9393C28.158 20.2206 28 20.6022 28 21C28 21.3978 28.158 21.7794 28.4393 22.0607C28.7206 22.342 29.1022 22.5 29.5 22.5C29.8978 22.5 30.2794 22.342 30.5607 22.0607C30.842 21.7794 31 21.3978 31 21C31 20.6022 30.842 20.2206 30.5607 19.9393C30.2794 19.658 29.8978 19.5 29.5 19.5ZM36.5 19.5C36.1022 19.5 35.7206 19.658 35.4393 19.9393C35.158 20.2206 35 20.6022 35 21C35 21.3978 35.158 21.7794 35.4393 22.0607C35.7206 22.342 36.1022 22.5 36.5 22.5C36.8978 22.5 37.2794 22.342 37.5607 22.0607C37.842 21.7794 38 21.3978 38 21C38 20.6022 37.842 20.2206 37.5607 19.9393C37.2794 19.658 36.8978 19.5 36.5 19.5ZM33 23C32.6022 23 32.2206 23.158 31.9393 23.4393C31.658 23.7206 31.5 24.1022 31.5 24.5C31.5 24.8978 31.658 25.2794 31.9393 25.5607C32.2206 25.842 32.6022 26 33 26C33.3978 26 33.7794 25.842 34.0607 25.5607C34.342 25.2794 34.5 24.8978 34.5 24.5C34.5 24.1022 34.342 23.7206 34.0607 23.4393C33.7794 23.158 33.3978 23 33 23Z" fill="#FCC67C"/>
</svg>
