<svg width="57" height="57" viewBox="0 0 57 57" fill="none" xmlns="http://www.w3.org/2000/svg">
<path d="M49.3128 29.7079C50.248 28.4722 50.7656 26.9581 50.7656 25.3828C50.7656 22.8835 49.3685 20.5178 47.1196 19.1985C46.5407 18.8589 45.8815 18.6802 45.2104 18.6808H31.8621L32.1961 11.8397C32.274 10.1865 31.6896 8.61679 30.554 7.42001C29.9967 6.83013 29.3244 6.3608 28.5786 6.04102C27.8327 5.72124 27.0293 5.55781 26.2178 5.56083C23.3232 5.56083 20.7627 7.50907 19.9945 10.2978L15.213 27.6094H8.01562C7.03037 27.6094 6.23438 28.4054 6.23438 29.3906V49.6523C6.23438 50.6376 7.03037 51.4336 8.01562 51.4336H41.4864C41.9985 51.4336 42.4995 51.3334 42.9615 51.133C45.6111 50.003 47.32 47.4146 47.32 44.5424C47.32 43.841 47.2198 43.1508 47.0194 42.4828C47.9546 41.2471 48.4723 39.733 48.4723 38.1577C48.4723 37.4563 48.3721 36.7661 48.1717 36.0981C49.1068 34.8624 49.6245 33.3483 49.6245 31.773C49.6134 31.0717 49.5132 30.3759 49.3128 29.7079ZM10.2422 47.4258V31.6172H14.751V47.4258H10.2422ZM45.6668 27.7764L44.4478 28.834L45.2215 30.2478C45.4764 30.7136 45.6086 31.2365 45.6056 31.7675C45.6056 32.6859 45.2048 33.5598 44.5146 34.161L43.2955 35.2186L44.0692 36.6325C44.3241 37.0982 44.4563 37.6212 44.4533 38.1521C44.4533 39.0706 44.0525 39.9445 43.3623 40.5457L42.1433 41.6033L42.917 43.0172C43.1719 43.4829 43.3041 44.0059 43.3011 44.5368C43.3011 45.7837 42.5663 46.9081 41.4308 47.4202H18.3135V31.439L23.8521 11.3722C23.9949 10.8578 24.3014 10.4041 24.7253 10.0796C25.1492 9.75518 25.6673 9.57775 26.2011 9.57421C26.6241 9.57421 27.0416 9.69667 27.3756 9.94716C27.9267 10.3591 28.2217 10.9825 28.1883 11.6449L27.6539 22.6887H45.1547C46.1455 23.2954 46.7578 24.3196 46.7578 25.3828C46.7578 26.3013 46.357 27.1696 45.6668 27.7764Z" />
</svg>