<svg width="70" height="70" viewBox="0 0 70 70" fill="none" xmlns="http://www.w3.org/2000/svg">
<path d="M35 5.83334C32.1157 5.83334 29.2962 6.68864 26.8979 8.29108C24.4997 9.89352 22.6305 12.1711 21.5268 14.8359C20.423 17.5006 20.1342 20.4329 20.6969 23.2617C21.2596 26.0906 22.6485 28.6891 24.688 30.7286C26.7275 32.7682 29.326 34.1571 32.1549 34.7198C34.9838 35.2825 37.916 34.9937 40.5808 33.8899C43.2456 32.7861 45.5232 30.917 47.1256 28.5187C48.728 26.1205 49.5833 23.301 49.5833 20.4167C49.5833 16.5489 48.0469 12.8396 45.312 10.1047C42.5771 7.3698 38.8677 5.83334 35 5.83334ZM35 29.1667C33.2694 29.1667 31.5777 28.6535 30.1388 27.692C28.6998 26.7306 27.5783 25.364 26.9161 23.7652C26.2538 22.1663 26.0805 20.407 26.4181 18.7096C26.7557 17.0123 27.5891 15.4532 28.8128 14.2295C30.0365 13.0058 31.5956 12.1724 33.293 11.8348C34.9903 11.4972 36.7496 11.6705 38.3485 12.3327C39.9473 12.995 41.3139 14.1165 42.2754 15.5554C43.2368 16.9944 43.75 18.6861 43.75 20.4167C43.75 22.7373 42.8281 24.9629 41.1872 26.6039C39.5462 28.2448 37.3206 29.1667 35 29.1667ZM61.25 61.25V58.3333C61.25 52.9185 59.099 47.7254 55.2701 43.8966C51.4412 40.0677 46.2482 37.9167 40.8333 37.9167H29.1667C23.7518 37.9167 18.5588 40.0677 14.7299 43.8966C10.901 47.7254 8.75 52.9185 8.75 58.3333V61.25H14.5833V58.3333C14.5833 54.4656 16.1198 50.7563 18.8547 48.0214C21.5896 45.2865 25.2989 43.75 29.1667 43.75H40.8333C44.7011 43.75 48.4104 45.2865 51.1453 48.0214C53.8802 50.7563 55.4167 54.4656 55.4167 58.3333V61.25H61.25Z" fill="#FCC67C"/>
</svg>
